<?xml version="1.0" encoding="iso-8859-1"?>
<!-- Generator: Adobe Illustrator 19.0.0, SVG Export Plug-In . SVG Version: 6.00 Build 0)  -->
<svg version="1.1" id="Capa_1" xmlns="http://www.w3.org/2000/svg" xmlns:xlink="http://www.w3.org/1999/xlink" x="0px" y="0px"
	 viewBox="0 0 490.686 490.686" style="enable-background:new 0 0 490.686 490.686;" xml:space="preserve">
<g>
	<path style="fill:#FFC107;" d="M489.875,177.036c-1.649-3.989-5.539-6.591-9.856-6.592h-36.075l-18.368-36.779
		c-3.143-5.272-9.966-6.998-15.238-3.855c-1.585,0.945-2.91,2.27-3.855,3.855l-18.389,36.779h-36.075
		c-5.891-0.011-10.675,4.757-10.686,10.648c-0.005,2.84,1.123,5.565,3.134,7.571l27.968,27.968l-9.536,47.68
		c-1.179,5.772,2.544,11.407,8.315,12.586c2.99,0.611,6.097-0.088,8.538-1.919l36.267-27.2l36.267,27.2
		c4.712,3.536,11.398,2.583,14.934-2.129c1.831-2.44,2.53-5.548,1.919-8.538l-9.536-47.744l27.968-27.968
		C490.593,185.558,491.501,181.003,489.875,177.036z"/>
	<path style="fill:#FFC107;" d="M138.686,170.444h-36.075l-18.389-36.779c-3.144-5.272-9.966-6.998-15.239-3.855
		c-1.585,0.945-2.91,2.27-3.855,3.855L46.76,170.444H10.686C4.795,170.434,0.011,175.201,0,181.092
		c-0.005,2.84,1.123,5.565,3.134,7.571l27.968,27.968l-9.536,47.68c-1.179,5.772,2.544,11.407,8.316,12.586
		c2.989,0.611,6.097-0.088,8.538-1.919l36.267-27.2l36.267,27.2c4.712,3.536,11.398,2.583,14.934-2.129
		c1.831-2.44,2.53-5.548,1.919-8.538l-9.536-47.744l27.968-27.904c4.171-4.16,4.179-10.914,0.019-15.085
		C144.251,171.567,141.526,170.439,138.686,170.444z"/>
	<path style="fill:#FFC107;" d="M202.686,149.111c5.891,0.001,10.668-4.773,10.669-10.664c0-0.717-0.072-1.433-0.216-2.136
		l-9.536-47.744l27.968-27.968c4.136-4.195,4.087-10.949-0.108-15.085c-1.985-1.957-4.657-3.059-7.444-3.07h-36.075L169.555,5.666
		c-3.144-5.272-9.966-6.998-15.239-3.855c-1.585,0.945-2.91,2.27-3.855,3.855l-18.368,36.779H96.019
		c-5.891-0.011-10.675,4.757-10.686,10.648c-0.005,2.84,1.123,5.565,3.134,7.571l27.968,27.947l-9.536,47.701
		c-1.179,5.772,2.544,11.407,8.315,12.586c2.989,0.611,6.097-0.088,8.538-1.919l36.267-27.2l36.267,27.2
		C198.132,148.363,200.378,149.111,202.686,149.111z"/>
	<path style="fill:#FFC107;" d="M373.352,149.111c5.891,0.001,10.668-4.773,10.669-10.664c0-0.717-0.072-1.433-0.215-2.136
		l-9.536-47.744l27.968-27.968c4.136-4.195,4.087-10.949-0.108-15.085c-1.985-1.957-4.657-3.059-7.444-3.07h-36.075L340.222,5.666
		c-3.144-5.272-9.966-6.998-15.238-3.855c-1.585,0.945-2.91,2.27-3.855,3.855L302.76,42.444h-36.075
		c-5.891-0.011-10.675,4.757-10.686,10.648c-0.005,2.84,1.123,5.565,3.134,7.571l27.968,27.968l-9.536,47.68
		c-1.179,5.772,2.544,11.407,8.316,12.586c2.989,0.611,6.097-0.088,8.538-1.919l36.267-27.2l36.267,27.2
		C368.799,148.363,371.044,149.111,373.352,149.111z"/>
	<path style="fill:#FFC107;" d="M309.352,170.444h-36.075l-18.368-36.779c-3.144-5.272-9.966-6.998-15.239-3.855
		c-1.585,0.945-2.91,2.27-3.855,3.855l-18.389,36.779h-36.075c-5.891-0.011-10.675,4.757-10.686,10.648
		c-0.005,2.84,1.123,5.565,3.134,7.571l27.968,27.968l-9.536,47.68c-1.179,5.772,2.544,11.407,8.316,12.586
		c2.989,0.611,6.097-0.088,8.538-1.919l36.267-27.2l36.267,27.2c4.712,3.536,11.398,2.583,14.934-2.129
		c1.831-2.44,2.53-5.548,1.919-8.538l-9.536-47.744l27.968-27.968c4.136-4.195,4.087-10.949-0.108-15.085
		C314.811,171.558,312.139,170.456,309.352,170.444z"/>
</g>
<path style="fill:#546E7A;" d="M53.352,298.444h384c29.455,0,53.333,23.878,53.333,53.333v85.333
	c0,29.455-23.878,53.333-53.333,53.333h-384c-29.455,0-53.333-23.878-53.333-53.333v-85.333
	C0.019,322.323,23.897,298.444,53.352,298.444z"/>
<g>
	<path style="fill:#FAFAFA;" d="M96.019,341.111c-5.891,0-10.667,4.776-10.667,10.667v32H64.019v-32
		c0-5.891-4.776-10.667-10.667-10.667s-10.667,4.776-10.667,10.667v85.333c0,5.891,4.776,10.667,10.667,10.667
		s10.667-4.776,10.667-10.667v-32h21.333v32c0,5.891,4.776,10.667,10.667,10.667s10.667-4.776,10.667-10.667v-85.333
		C106.686,345.887,101.91,341.111,96.019,341.111z"/>
	<path style="fill:#FAFAFA;" d="M160.019,341.111c-17.673,0-32,14.327-32,32v42.667c0,17.673,14.327,32,32,32s32-14.327,32-32
		v-42.667C192.019,355.438,177.692,341.111,160.019,341.111z M170.686,415.778c0,5.891-4.776,10.667-10.667,10.667
		s-10.667-4.776-10.667-10.667v-42.667c0-5.891,4.776-10.667,10.667-10.667s10.667,4.776,10.667,10.667V415.778z"/>
	<path style="fill:#FAFAFA;" d="M277.352,341.111h-64c-5.891,0-10.667,4.776-10.667,10.667s4.776,10.667,10.667,10.667h21.333
		v74.667c0,5.891,4.776,10.667,10.667,10.667c5.891,0,10.667-4.776,10.667-10.667v-74.667h21.333
		c5.891,0,10.667-4.776,10.667-10.667S283.243,341.111,277.352,341.111z"/>
	<path style="fill:#FAFAFA;" d="M352.019,362.444c5.891,0,10.667-4.776,10.667-10.667s-4.776-10.667-10.667-10.667h-42.667
		c-5.891,0-10.667,4.776-10.667,10.667v85.333c0,5.891,4.776,10.667,10.667,10.667h42.667c5.891,0,10.667-4.776,10.667-10.667
		c0-5.891-4.776-10.667-10.667-10.667h-32v-21.333h10.667c5.891,0,10.667-4.776,10.667-10.667c0-5.891-4.776-10.667-10.667-10.667
		h-10.667v-21.333H352.019z"/>
	<path style="fill:#FAFAFA;" d="M437.352,426.444h-32v-74.667c0-5.891-4.776-10.667-10.667-10.667s-10.667,4.776-10.667,10.667
		v85.333c0,5.891,4.776,10.667,10.667,10.667h42.667c5.891,0,10.667-4.776,10.667-10.667
		C448.019,431.22,443.243,426.444,437.352,426.444z"/>
</g>
<g>
</g>
<g>
</g>
<g>
</g>
<g>
</g>
<g>
</g>
<g>
</g>
<g>
</g>
<g>
</g>
<g>
</g>
<g>
</g>
<g>
</g>
<g>
</g>
<g>
</g>
<g>
</g>
<g>
</g>
</svg>
